<?xml version="1.0" encoding="UTF-8"?><svg id="b" xmlns="http://www.w3.org/2000/svg" viewBox="0 0 149.8 38.5"><defs><style>.d{fill:#fd5817;}.e{fill:#fd5613;}.f{fill:#fd5816;}.g{fill:#fd5614;}.h{fill:#fd5f20;}.i{fill:#fd5715;}.j{fill:#fd5513;}.k{fill:#fd6021;}.l{fill:#fd5512;}.m{fill:#fd5411;}.n{fill:#fd5918;}</style></defs><g id="c"><path class="m" d="M41.7,21.9c-3.1.3-6.5-.2-9.6,0-.5,0-1.6,1.1-1.6,1.5v12.5h6.2s.2-.2.2-.2v-8c1.7,0,3.6.1,5.3,0,8.9-.7,14-10.5,8.9-18-1.9-2.8-5.8-5.8-9.3-4.7l-22.8,17.6c-1,.5-3.3.5-4.5.4-1.3-.1-2.6-.9-2.7-2.3-.4-2.6.2-6,0-8.7.3-3,4.1-2.9,6.3-2.6,2.5.3,1.9,2.2,3.4,2.9,1,.4,3.4.5,4.3,0,1.9-1.1.7-3.6-.2-5-2.6-4.2-7-4.7-11.6-4.4-4.1.3-8.3,4.1-8.7,8.3-.3,2.3-.3,8.1,0,10.4.9,7,9,9.3,14.9,7.4l23.3-17.9c.6-.3,1.5.7,1.9,1.1,2.8,3.4,1,9.3-3.7,9.7Z"/><path class="j" d="M1,15.5v-6.8C1,4.9,5.8.5,9.6.5h130.7c3.5.3,6.7,2.7,8,6,1,2.7.4,5.8.5,8.7,0,.3.2.4.5.3v-7.1c0-3.8-5.2-8.5-9-8.4H9.8C5.7,0,.5,4.5.5,8.6v6.8s.5,0,.5,0Z"/><path class="i" d="M148.7,30.1c-.5,4.1-4.3,7.6-8.3,7.9H9.3c-3.7,0-8.3-4.4-8.3-8.1v-5.7c0,0-.5,0-.5,0v5.7c0,4.1,4.9,8.7,9,8.6h130.9c3.8,0,8.8-4.6,8.8-8.4v-5.9h-.4c-.3,1.9,0,4-.2,5.9Z"/><path class="j" d="M76.8,30.1c.3-.1,1.2-.8,1.3-.8.3,0,.9,1.1,1.2,1,0,0,.3-.2.3-.3,0-.1-1.1-.9-1.1-1.3,0-.3,1.1-2,.8-2.4-.4-.4-.6.9-.7,1.1,0,.2-.4,1-.5,1-.5-.7-1.6-1.4-2.1-2.1,0-.1-.2-.1-.1-.3.9-.3,2-1,2.1-2.1,0-2.6-4.2-2.2-4,.4,0,.7.7,1.2.9,1.9-3.6,1.5-1.5,5.4,2,4ZM74.6,24.8c-.4-.9-.2-1.9.9-2.1,1.6-.3,2.5,1.1,1.3,2.2-.2.2-1.2.8-1.5.8-.2,0-.7-.7-.8-.9ZM74,27.1c.1-.1,1-.7,1.1-.7.3,0,2.2,2.2,2.6,2.5-.7,1.1-3,1.5-3.9.5-.6-.7-.4-1.7.2-2.3Z"/><path class="j" d="M63.4,16.3v-8.1h-.5c-.6.5-3.1,4.7-3.4,4.7-.3,0-3.1-4.2-3.5-4.7h-.6s0,8,0,8c0,0,.5,0,.5,0v-7.2l3.5,4.7,3.3-4.4.4-.2v7h.4Z"/><path class="j" d="M108.2,17.6c0-1-.6-1.3-1.3-1.7-.5-.3.4-.5.7-.8.7-.7.8-1.7.6-2.6,0-.4-.7-1.2-.7-1.3,0-.2.9-.7.6-1-.3-.3-.9.7-1.1.7,0,0-.3-.2-.5-.3-4.4-1.3-5.4,4.2-2.4,5.1,1,.3,2.6,0,3.3.9,1.6,2.2-3,3.5-4.1,1.4,0-.1-.3-1.2-.7-.8,0,0,0,.5,0,.6.6,2.4,5.6,2.1,5.6-.5ZM104.1,15.4c-2-.8-1.6-3.9.4-4.3,1.1-.2,2.7.1,3,1.4.6,2.2-1.4,3.7-3.4,2.9Z"/><path class="j" d="M129,12.5c0-.4-.7-1.1-.7-1.2,0-.3.7-.8.7-.9,0-.2-.3-.2-.5-.1-.2.1-.5.7-.6.7,0,0-.9-.4-1.2-.5-4-.6-4.8,4.9-1.2,5.5.9.1,2.4,0,2.9,1.1,1,2.4-3.7,2.9-4.4,1.1-.2-.5.2-.9-.6-.7,0,2.1,2.4,2.6,4.1,2.1,1.7-.6,2.2-2.4.6-3.5-.3-.2-.7,0-.6-.4,1.3-.4,1.8-1.9,1.5-3.1ZM125.1,15.4c-2-.8-1.7-3.9.3-4.3,1.1-.2,2.7.1,3,1.4.6,2.2-1.3,3.7-3.4,3Z"/><path class="j" d="M119.8,12.2c0-1.8-1.6-4-3.5-4h-3.3v8.1h3.4c1.8,0,3.4-2.3,3.4-4ZM116.4,15.7h-2.9v-7h2.8c.1,0,1,.3,1.2.4,2.3,1.2,2.3,4.8,0,6.1-.2.1-1,.5-1.2.5Z"/><path class="e" d="M84.6,30.3v-2.8h3.4c.5,0,1.4-.6,1.7-1,.8-1.1.6-3.1-.6-3.8-.1,0-.9-.4-.9-.4h-4v8.1s.5,0,.5,0ZM84.6,22.8h3.5s.5.2.6.3c1.2.7,1.2,2.7.1,3.5-.1,0-.7.4-.7.4h-3.5v-4.2Z"/><path class="e" d="M103.7,30.3v-8.1c0,0-.5,0-.5,0v3.5c-.2-.1-.3-.4-.5-.6-2.4-1.9-5.7.6-4.5,3.6.8,2,3.8,2.3,4.9.4.2,0-.2,1.4.6,1.2ZM101.2,29.9c-3.3.4-3.7-4.6-.7-4.9,3.4-.4,3.6,4.6.7,4.9Z"/><path class="g" d="M142.9,16.3v-5.6c-.8-.2-.4.4-.5,1-2.2-2.5-5.9-.8-5.2,2.6.4,2,2.9,2.8,4.5,1.6.3-.2.4-.5.6-.7,0,.6-.3,1.3.5,1.2ZM139.5,15.9c-2.6-.4-2.6-4.8.4-4.9,3.3,0,3.4,5.4-.4,4.9Z"/><path class="g" d="M70.8,16.3v-5.6c-.8-.2-.4.4-.5,1-1.4-1.8-4.5-1.5-5.1.8-.9,3.3,2.8,5.2,5.1,2.7,0,.6-.3,1.2.5,1ZM67.4,15.9c-2.5-.3-2.6-4.8.4-4.9,3.4-.1,3.4,5.5-.4,4.9Z"/><path class="j" d="M115.5,24.9c-1.3-.7-3.2-.4-3.9,1-1.7,3.5,2.5,6.1,5,3.2v1.2s.4,0,.4,0v-5.8h-.4s0,1.2,0,1.2l-1-.8ZM114.4,29.9c-3.3.4-3.7-4.5-.7-4.9,1.2-.2,2.5.6,2.7,1.8.2,1.5-.4,2.9-2,3.1Z"/><path class="j" d="M85,10.5c-4.2-.2-4,6.3.2,5.9.4,0,2-.7,2-1.1,0,0-.3-.3-.3-.3,0,0-.4.4-.5.5-1.7,1-4,.3-3.9-1.9h5.1c.1-1.7-.9-3-2.6-3.1ZM82.5,13.2c0-3,4.7-3,4.6,0h-4.6Z"/><path class="e" d="M93.9,30.4c4,0,3.9-6.6-.7-5.8-3.1.5-2.9,5.8.7,5.8ZM93.6,25c3.4-.4,3.7,4.6.7,4.9-3.3.4-3.8-4.6-.7-4.9Z"/><path class="g" d="M123.2,28.7c0-1.9-3.7-1.3-4.1-2.3-.4-1.3,1.4-1.6,2.3-1.4.7.1,1.3.9,1.6.3-.8-.7-2-.9-3.1-.7-1.5.2-2,2-.4,2.7.9.4,3.6.4,3.1,1.8-.3,1-2.1.9-2.9.7-.4-.1-1-.7-1.1-.7-.4,0-.2.5.1.7,1.2.9,4.5.9,4.4-1.1Z"/><path class="l" d="M80.8,16.2c.2,0,.4,0,.6,0l-3.2-2.9,2.8-2.7c-.2,0-.4,0-.6,0-.3.2-1.8,1.8-2.3,2.2-.1,0-.2.2-.4.2v-4.9h-.4v8.1h.4v-2.7c.9.4,2.2,2.3,3.1,2.6Z"/><path class="j" d="M100.2,11.9c0,.1.3.9.3,1v3.4h.4v-4c0,0-.4-.9-.5-1-1-1.1-3.1-.8-4,.3v-.9c0,0-.4,0-.4,0v5.6h.4v-3.4c0,0,.2-.7.3-.8.7-1.3,3-1.5,3.6-.2Z"/><path class="f" d="M125.6,30c.4.6,1.5.5,2.1.2.2,0,.3,0,.2-.3-.1-.3-.7,0-1,0-.5,0-1.2-.3-1.2-.8v-4h1.9c.2,0,.2-.5,0-.5h-1.9v-1.7c-.9-.2-.3,1.5-.5,1.7-.2.2-1.5-.4-1.2.5.2,0,1.1,0,1.2,0,.1.1,0,3.4,0,3.9s.3.9.4,1Z"/><path class="g" d="M109.4,30.2c.1,0,.8-.4.9-.5,0-.1-.1-.4-.3-.4-.2,0-.9.5-1.3.6-3.6.6-3.9-5-.5-5,.8,0,1.4.6,1.7.6.6,0,.2-.5-.3-.7-1.4-.7-3.3-.2-4,1.2-1.2,2.6,1.2,5.2,3.9,4.1Z"/><path class="i" d="M134.2,16.1c.6.4,1.4.2,2.1,0-.1-.8-.2-.3-.7-.3-.3,0-1,0-1.2-.2,0,0-.3-.5-.3-.5v-4.2h1.9v-.4h-1.9v-1.8c-.9-.2-.3,1.6-.5,1.8,0,0-.9,0-1.2,0v.4c0,0,1.2,0,1.2,0v4.2c0,.2.4.8.6,1Z"/><path class="l" d="M92.1,15.7c-.6,0-1.6.4-1.9-.4-.2-.6-.3-3.2-.2-3.9,0-.1,0-.4.2-.4h1.9v-.4h-1.9c-.3,0-.2-1.5-.2-1.8h-.4c0,.4.1,1.4,0,1.7-.2.3-1.2,0-1.2.2-.1.7,1.1.1,1.3.3.2.2,0,3.8,0,4.4s.7.9,1.1.9c.4,0,1.7,0,1.4-.6Z"/><path class="f" d="M75.2,11c.4,0,.7.3.8.3.1,0,.2-.3.2-.4-.1-.4-1.8-.4-2.2,0l-.9.8v-1s-.4,0-.4,0v5.6s.5,0,.5,0c.1-.1,0-3.1,0-3.6,0-.8,1.2-1.6,2-1.6Z"/><rect class="m" x="144.8" y="8.2" width=".4" height="8.1"/><path class="h" d="M121.2,10.6v5.6s.5,0,.5,0v-5.6c0,0-.5,0-.5,0Z"/><path class="h" d="M130.6,10.6v5.6s.5,0,.5,0v-5.6c0,0-.5,0-.5,0Z"/><path class="k" d="M93.5,10.6v5.6s.5,0,.5,0v-5.6c0,0-.5,0-.5,0Z"/><path class="d" d="M148.5,19.4c-.6.8.6,1.5,1.1.9.6-.6-.5-1.8-1.1-.9Z"/><path class="d" d="M1.3,20.3c.6-.8-.6-1.5-1.1-.9-.6.6.5,1.8,1.1.9Z"/><path class="n" d="M131.2,8.5c-.5-.5-1,.4-.6.7.4.3,1-.3.6-.7Z"/><path class="n" d="M121.8,8.5c-.5-.5-1,.4-.6.7.4.3,1-.3.6-.7Z"/><path class="h" d="M93.4,8.5c-.5.5.4,1,.7.6.3-.4-.3-1-.7-.6Z"/></g></svg>